<svg width="456" height="477" viewBox="0 0 456 477" fill="none" opacity="0.05" xmlns="http://www.w3.org/2000/svg">
<path d="M175.976 207.505C180.745 214.159 187.47 217.778 196.045 217.778C207.158 217.778 216.105 213.183 222.218 205.077C227.543 198.017 230.398 188.61 230.398 179.19V165.842L203.705 166.029L202.634 184.769C202.634 191.176 200.36 193.307 194.634 193.307C190.198 193.307 187.057 188.664 186.062 180.555L181.521 147.195C179.749 135.693 175.434 126.76 168.955 120.279C163.404 114.726 156.442 111.15 148.607 109.361L126.604 103.559C123.501 103.559 121.258 105.996 121.258 108.767C121.258 113.361 121.802 115.611 124.475 118.888C125.24 119.825 126.474 120.655 128.2 121.52C129.982 122.412 132.296 123.336 135.03 124.28C137.23 125.041 139.578 125.774 141.926 126.453C142.893 126.733 143.862 127.003 144.834 127.264C153.208 129.521 159.636 137.562 160.575 145.97L168.201 185.046C169.39 194.18 171.932 201.863 175.976 207.505ZM230.179 166.484H204.635L204.674 168.874L204.915 183.982C204.915 190.305 200.33 194.185 194.142 194.185C189.694 194.185 185.524 189.495 180.551 179.75L166.106 151.752C159.658 140.563 151.004 134.449 137.486 131.794L117.003 126.532C113.732 126.532 111.23 130.579 111.23 133.466C111.23 136.764 112.668 140.258 114.877 142.986C116.872 145.452 121.109 147.602 125.056 148.431L133.654 150.264C140.486 152.571 146.818 157.275 149.763 162.831L160.642 188.908C164.743 197.891 168.938 204.465 173.955 209.21C179.834 214.77 186.757 217.66 195.019 217.66C202.588 217.66 210.444 214.967 216.521 210.143C223.274 204.781 227.42 197.195 227.971 188.192L230.179 166.484Z" fill="#053949"/>
<path d="M169.949 169.463L165.241 145.35C164.055 135.117 156.334 125.49 146.257 122.773C145.982 122.701 145.708 122.627 145.434 122.552C144.771 122.371 144.031 122.163 143.233 121.933C140.958 121.274 138.683 120.564 136.567 119.833C134.012 118.95 131.873 118.096 130.308 117.312C129.687 117.001 129.171 116.707 128.774 116.44C128.434 116.212 128.211 116.023 128.122 115.913C126.269 113.642 125.963 112.379 125.963 108.767C125.963 108.643 126.025 108.492 126.129 108.378C126.152 108.353 147.445 113.921 147.445 113.921C154.552 115.539 160.732 118.71 165.627 123.606C171.375 129.356 175.246 137.369 176.864 147.871L181.395 181.159C182.64 191.302 187.179 198.013 194.633 198.013C202.872 198.013 207.317 193.867 207.339 184.905L208.151 170.704L225.692 170.581V179.19C225.692 187.63 223.14 196.04 218.461 202.244C213.224 209.186 205.659 213.072 196.045 213.072C195.089 213.074 194.134 213.016 193.185 212.899C180.97 212.154 172.634 203.83 164.97 187.06L154.026 160.828C150.413 153.915 143.004 148.419 135.019 145.758L126.03 143.827C123.044 143.2 119.751 141.529 118.535 140.025C116.96 138.08 115.936 135.592 115.936 133.465C115.936 133.203 116.193 132.462 116.576 131.843C116.692 131.656 116.809 131.494 116.917 131.368L136.449 136.385C148.728 138.784 156.232 144.067 161.975 154.007L169.949 169.463Z" fill="#00D8FE"/>
<path d="M169.949 169.463L165.241 145.35C164.055 135.117 156.334 125.49 146.257 122.773C145.982 122.701 145.708 122.627 145.434 122.552C144.771 122.371 144.031 122.163 143.233 121.933C140.958 121.274 138.683 120.564 136.567 119.833C134.012 118.95 131.873 118.096 130.308 117.312C129.687 117.001 129.171 116.707 128.774 116.44C128.434 116.212 128.211 116.023 128.122 115.913C126.269 113.642 125.963 112.379 125.963 108.767C125.963 108.643 126.025 108.492 126.129 108.378C126.152 108.353 147.445 113.921 147.445 113.921C154.552 115.539 160.732 118.71 165.627 123.606C171.375 129.356 175.246 137.369 176.864 147.871L181.395 181.159C182.64 191.302 187.179 198.013 194.633 198.013C202.872 198.013 207.317 193.867 207.339 184.905L208.151 170.704L225.692 170.581V179.19C225.692 187.63 223.14 196.04 218.461 202.244C213.224 209.186 205.659 213.072 196.045 213.072C195.089 213.074 194.134 213.016 193.185 212.899C180.97 212.154 172.634 203.83 164.97 187.06L154.026 160.828C150.413 153.915 143.004 148.419 135.019 145.758L126.03 143.827C123.044 143.2 119.751 141.529 118.535 140.025C116.96 138.08 115.936 135.592 115.936 133.465C115.936 133.203 116.193 132.462 116.576 131.843C116.692 131.656 116.809 131.494 116.917 131.368L136.449 136.385C148.728 138.784 156.232 144.067 161.975 154.007L169.949 169.463Z" fill="#00D8FE"/>
<path d="M116.853 130.975C117.266 131.683 117.746 132.351 118.287 132.967C119.608 134.47 123.183 136.141 126.425 136.768L136.185 138.699C144.854 141.36 152.898 146.857 156.822 153.769L168.705 180.001C170.321 183.258 171.964 186.196 173.661 188.823C173.337 187.19 173.069 185.547 172.858 183.896L169.949 168.992L161.975 153.536C156.232 143.596 148.728 138.313 136.449 135.914L116.917 130.898L116.853 130.975Z" fill="black" fill-opacity="0.25"/>
<path d="M212.045 170.673V183.896C212.045 192.976 208.384 202.248 195.501 202.248C187.662 202.248 179.678 197.423 177.075 179.258L172.01 144.366C170.696 134.133 160.509 119.843 149.339 117.126C148.912 117.024 133.396 112.449 131.662 111.665C130.973 111.354 129.337 110.376 129.238 110.265C128.638 109.603 128.185 109.026 127.844 108.451C130.383 109.105 148.402 113.921 148.402 113.921C155.356 115.539 161.403 118.71 166.191 123.606C171.815 129.356 175.602 137.369 177.185 147.871L181.618 181.159C182.836 191.302 187.277 198.013 194.57 198.013C202.631 198.013 206.98 193.867 207.001 184.905L207.795 170.704L212.045 170.673Z" fill="black" fill-opacity="0.25"/>
<path d="M230.869 182.013V165.543H203.575V167.896C203.575 189.075 197.77 198.248 184.751 198.248C173.263 198.248 165.361 190.041 160.331 176.576C154.592 161.214 145.889 154.248 128.922 154.248H105.692C102.757 154.248 100.439 156.669 100.439 159.593C100.436 163.248 101.89 166.753 104.48 169.332C107.069 171.922 110.583 173.375 114.245 173.368L128.978 173.307C132.04 173.307 135 175.548 138.04 180.128C140.573 183.945 142.707 188.468 146.099 196.687C149.14 204.055 153.308 210.302 158.883 215.008C165.704 220.767 174.29 223.896 184.751 223.896C196.014 223.896 207.472 219.79 216.124 212.603C225.465 204.843 230.869 194.136 230.869 182.013Z" fill="#053949"/>
<path d="M226.163 170.248V182.013C226.163 192.684 221.417 202.088 213.117 208.983C205.313 215.466 194.921 219.19 184.751 219.19C175.399 219.19 167.89 216.453 161.919 211.413C156.98 207.242 153.223 201.613 150.449 194.891C146.942 186.393 144.719 181.681 141.96 177.526C138.138 171.767 133.957 168.601 128.968 168.601L114.235 168.662C111.823 168.667 109.508 167.709 107.804 166.001C106.099 164.305 105.142 161.998 105.145 159.593C105.145 159.224 105.403 158.954 105.692 158.954H128.922C143.785 158.954 150.831 164.594 155.922 178.223C158.355 184.736 161.551 190.348 165.669 194.625C170.834 199.989 177.193 202.954 184.751 202.954C200.386 202.954 207.77 192.125 208.255 170.248H226.163Z" fill="#00D8FE"/>
<path d="M105.291 159.159C105.72 159.704 106.326 160.194 107.084 160.882C108.706 162.353 110.886 163.19 113.222 163.19H132.516C143.271 163.19 148.863 171.592 155.888 187.06C158.535 192.888 165.756 206.954 186.163 206.954C206.57 206.954 212.516 187.032 212.516 177.778V170.248H208.255C207.771 192.125 200.387 202.954 184.751 202.954C177.194 202.954 170.834 199.989 165.669 194.625C161.551 190.348 158.355 184.736 155.922 178.223C150.831 164.594 143.785 158.954 128.922 158.954H105.692C105.538 158.954 105.393 159.031 105.291 159.159Z" fill="black" fill-opacity="0.25"/>
<path d="M280.114 207.505C275.346 214.159 268.62 217.778 260.045 217.778C248.932 217.778 239.986 213.183 233.873 205.077C228.547 198.017 225.692 188.61 225.692 179.19V165.842L252.386 166.029L253.457 184.769C253.457 191.176 255.73 193.307 261.457 193.307C265.893 193.307 269.034 188.664 270.028 180.555L274.57 147.195C276.341 135.693 280.657 126.76 287.136 120.279C292.687 114.726 299.649 111.15 307.484 109.361L329.487 103.559C332.59 103.559 334.833 105.996 334.833 108.767C334.833 113.361 334.289 115.611 331.615 118.888C330.851 119.825 329.617 120.655 327.89 121.52C326.109 122.412 323.795 123.336 321.061 124.28C318.861 125.041 316.513 125.774 314.165 126.453C313.198 126.733 312.229 127.003 311.257 127.264C302.883 129.521 296.455 137.562 295.515 145.97L287.89 185.046C286.7 194.18 284.159 201.863 280.114 207.505ZM225.912 166.484H251.455L251.417 168.874L251.175 183.982C251.175 190.305 255.76 194.185 261.949 194.185C266.397 194.185 270.567 189.495 275.54 179.75L289.984 151.752C296.433 140.563 305.086 134.449 318.604 131.794L339.088 126.532C342.358 126.532 344.86 130.579 344.86 133.466C344.86 136.764 343.422 140.258 341.214 142.986C339.219 145.452 334.981 147.602 331.035 148.431L322.437 150.264C315.605 152.571 309.272 157.275 306.327 162.831L295.448 188.908C291.348 197.891 287.153 204.465 282.135 209.21C276.257 214.77 269.333 217.66 261.072 217.66C253.502 217.66 245.647 214.967 239.57 210.143C232.816 204.781 228.67 197.195 228.119 188.192L225.912 166.484Z" fill="#053949"/>
<path d="M286.142 169.463L290.849 145.35C292.035 135.117 299.756 125.49 309.834 122.773C310.844 122.503 311.852 122.223 312.857 121.933C315.133 121.274 317.408 120.564 319.523 119.833C322.079 118.95 324.218 118.096 325.782 117.312C326.403 117.001 326.919 116.707 327.316 116.44C327.657 116.212 327.879 116.023 327.969 115.913C329.821 113.642 330.127 112.379 330.127 108.767C330.127 108.643 330.066 108.492 329.961 108.378C329.938 108.353 308.646 113.921 308.646 113.921C301.538 115.539 295.358 118.71 290.464 123.606C284.715 129.356 280.845 137.369 279.227 147.871L274.695 181.159C273.451 191.302 268.912 198.013 261.457 198.013C253.218 198.013 248.774 193.867 248.751 184.905L247.94 170.704L230.398 170.581V179.19C230.398 187.63 232.951 196.04 237.63 202.244C242.866 209.186 250.431 213.072 260.045 213.072C261.03 213.072 261.984 213.014 262.906 212.899C275.12 212.154 283.457 203.83 291.12 187.06L302.064 160.828C305.678 153.915 313.087 148.419 321.071 145.758L330.06 143.827C333.046 143.2 336.339 141.529 337.556 140.025C339.13 138.08 340.154 135.592 340.154 133.465C340.154 133.203 339.897 132.462 339.514 131.843C339.413 131.677 339.299 131.518 339.174 131.368L319.642 136.385C307.363 138.784 299.858 144.067 294.115 154.007L286.142 169.463Z" fill="#00D8FE"/>
<path d="M286.142 169.463L290.849 145.35C292.035 135.117 299.756 125.49 309.834 122.773C310.844 122.503 311.852 122.223 312.857 121.933C315.133 121.274 317.408 120.564 319.523 119.833C322.079 118.95 324.218 118.096 325.782 117.312C326.403 117.001 326.919 116.707 327.316 116.44C327.657 116.212 327.879 116.023 327.969 115.913C329.821 113.642 330.127 112.379 330.127 108.767C330.127 108.643 330.066 108.492 329.961 108.378C329.938 108.353 308.646 113.921 308.646 113.921C301.538 115.539 295.358 118.71 290.464 123.606C284.715 129.356 280.845 137.369 279.227 147.871L274.695 181.159C273.451 191.302 268.912 198.013 261.457 198.013C253.218 198.013 248.774 193.867 248.751 184.905L247.94 170.704L230.398 170.581V179.19C230.398 187.63 232.951 196.04 237.63 202.244C242.866 209.186 250.431 213.072 260.045 213.072C261.03 213.072 261.984 213.014 262.906 212.899C275.12 212.154 283.457 203.83 291.12 187.06L302.064 160.828C305.678 153.915 313.087 148.419 321.071 145.758L330.06 143.827C333.046 143.2 336.339 141.529 337.556 140.025C339.13 138.08 340.154 135.592 340.154 133.465C340.154 133.203 339.897 132.462 339.514 131.843C339.413 131.677 339.299 131.518 339.174 131.368L319.642 136.385C307.363 138.784 299.858 144.067 294.115 154.007L286.142 169.463Z" fill="#00D8FE"/>
<path d="M339.237 130.975C338.825 131.683 338.345 132.351 337.804 132.967C336.482 134.47 332.907 136.141 329.665 136.768L319.905 138.699C311.236 141.36 303.192 146.857 299.268 153.769L287.386 180.001C285.77 183.258 284.127 186.196 282.43 188.823C282.753 187.19 283.021 185.547 283.232 183.896L286.142 168.992L294.115 153.536C299.858 143.596 307.363 138.313 319.642 135.914L339.174 130.897L339.237 130.975Z" fill="black" fill-opacity="0.25"/>
<path d="M244.045 170.673V183.896C244.045 192.976 247.707 202.248 260.589 202.248C268.428 202.248 276.413 197.423 279.016 179.258L284.081 144.366C285.395 134.133 295.581 119.843 306.752 117.126C307.179 117.024 322.695 112.449 324.429 111.665C325.118 111.354 326.754 110.376 326.853 110.265C327.452 109.603 327.906 109.026 328.247 108.451C325.708 109.105 307.689 113.921 307.689 113.921C300.735 115.539 294.688 118.71 289.9 123.606C284.276 129.356 280.489 137.369 278.906 147.871L274.473 181.159C273.255 191.302 268.813 198.013 261.521 198.013C253.46 198.013 249.111 193.867 249.09 184.905L248.296 170.704L244.045 170.673Z" fill="black" fill-opacity="0.25"/>
<path d="M225.222 182.013V165.543H252.516V167.896C252.516 189.075 258.321 198.248 271.339 198.248C282.828 198.248 290.73 190.041 295.76 176.576C301.498 161.214 310.201 154.248 327.169 154.248H350.398C353.334 154.248 355.651 156.669 355.651 159.593C355.655 163.248 354.2 166.753 351.611 169.332C349.022 171.922 345.508 173.375 341.845 173.368L327.113 173.307C324.05 173.307 321.091 175.548 318.051 180.128C315.517 183.945 313.383 188.468 309.992 196.687C306.951 204.055 302.782 210.302 297.207 215.008C290.386 220.767 281.801 223.896 271.339 223.896C260.076 223.896 248.619 219.79 239.967 212.603C230.625 204.843 225.222 194.136 225.222 182.013Z" fill="#053949"/>
<path d="M229.928 170.248V182.013C229.928 192.684 234.674 202.088 242.974 208.983C250.778 215.466 261.17 219.19 271.339 219.19C280.691 219.19 288.201 216.453 294.171 211.413C299.111 207.242 302.868 201.613 305.642 194.891C309.149 186.393 311.372 181.681 314.131 177.526C317.953 171.767 322.134 168.601 327.123 168.601L341.855 168.662C344.302 168.662 346.588 167.697 348.286 166.001C349.991 164.305 350.949 161.998 350.946 159.593C350.946 159.224 350.688 158.954 350.398 158.954H327.169C312.306 158.954 305.259 164.594 300.169 178.223C297.736 184.736 294.539 190.348 290.421 194.625C285.257 199.989 278.897 202.954 271.339 202.954C255.704 202.954 248.32 192.125 247.835 170.248H229.928Z" fill="#00D8FE"/>
<path d="M350.8 159.159C350.371 159.704 349.765 160.194 349.006 160.882C347.385 162.353 345.204 163.19 342.869 163.19H323.575C312.819 163.19 307.227 171.592 300.203 187.06C297.555 192.888 290.335 206.954 269.928 206.954C249.521 206.954 243.575 187.032 243.575 177.778V170.248H247.835C248.32 192.125 255.704 202.954 271.339 202.954C278.897 202.954 285.257 199.989 290.422 194.625C294.539 190.348 297.735 184.736 300.169 178.223C305.259 164.594 312.306 158.954 327.169 158.954H350.398C350.553 158.954 350.698 159.031 350.8 159.159Z" fill="black" fill-opacity="0.25"/>
<path d="M246.102 175.415C246.102 175.415 233.359 178.835 226.987 178.835C220.615 178.835 208.105 175.415 208.105 175.415C207.02 175.415 206.14 174.535 206.14 173.45V128.984C206.14 128.463 206.347 127.963 206.716 127.595C207.084 127.226 207.584 127.019 208.105 127.019H246.102C247.187 127.019 248.067 127.899 248.067 128.984V173.45C248.067 173.971 247.86 174.471 247.492 174.839C247.123 175.208 246.623 175.415 246.102 175.415Z" fill="#00D8FE"/>
<path d="M240.12 182.646C238.596 182.973 237.142 183.261 235.769 183.507C232.17 184.151 229.268 184.482 226.987 184.482C224.726 184.482 221.877 184.157 218.365 183.525C216.978 183.275 215.505 182.98 213.952 182.642C211.696 182.149 209.451 181.609 207.211 181.021C207.181 181.013 207.153 181.006 207.128 180.999C203.36 180.515 200.493 177.298 200.493 173.45V128.984C200.493 124.78 203.901 121.372 208.105 121.372H246.102C250.306 121.372 253.714 124.78 253.714 128.984V173.447C253.716 177.305 250.837 180.528 247.058 181.002C244.757 181.597 242.444 182.145 240.12 182.646ZM246.287 175.406C247.29 175.314 248.067 174.467 248.067 173.448V128.984C248.067 127.899 247.188 127.019 246.102 127.019H208.105C207.02 127.019 206.14 127.899 206.14 128.984V173.45C206.14 174.465 206.916 175.312 207.917 175.406L208.163 175.429L208.402 175.494C208.45 175.508 208.505 175.522 208.652 175.561C210.81 176.128 212.979 176.649 215.156 177.125C216.642 177.448 218.048 177.73 219.365 177.967C222.576 178.545 225.118 178.835 226.987 178.835C228.877 178.835 231.475 178.539 234.774 177.948C236.081 177.714 237.471 177.439 238.933 177.125C241.245 176.627 243.546 176.081 245.835 175.485L246.058 175.427L246.287 175.406Z" fill="#043849"/>
<mask id="mask0_203_23" style="mask-type:luminance" maskUnits="userSpaceOnUse" x="206" y="127" width="43" height="52">
<path d="M246.102 175.415C246.102 175.415 233.359 178.835 226.986 178.835C220.615 178.835 208.105 175.415 208.105 175.415C207.02 175.415 206.14 174.535 206.14 173.45V128.984C206.14 128.463 206.347 127.963 206.716 127.595C207.084 127.226 207.584 127.019 208.105 127.019H246.102C247.187 127.019 248.067 127.899 248.067 128.984V173.45C248.067 173.971 247.86 174.471 247.492 174.839C247.123 175.208 246.623 175.415 246.102 175.415Z" fill="black" fill-opacity="0.25"/>
</mask>
<g mask="url(#mask0_203_23)">
<path d="M205.928 141.072H216.281L210.634 180.601H205.928V141.072Z" fill="black" fill-opacity="0.25"/>
</g>
<path d="M205.671 160.518C212.18 160.518 217.456 155.252 217.456 148.755C217.456 142.259 212.18 136.992 205.671 136.992C199.163 136.992 193.886 142.259 193.886 148.755C193.886 155.252 199.163 160.518 205.671 160.518Z" fill="white"/>
<path d="M205.671 163.342C197.604 163.342 191.063 156.812 191.063 148.755C191.063 140.698 197.604 134.169 205.671 134.169C213.738 134.169 220.28 140.698 220.28 148.755C220.28 156.812 213.738 163.342 205.671 163.342ZM205.671 157.695C210.622 157.695 214.633 153.691 214.633 148.755C214.633 143.819 210.622 139.816 205.671 139.816C200.721 139.816 196.71 143.819 196.71 148.755C196.71 153.691 200.721 157.695 205.671 157.695Z" fill="#063A49"/>
<path d="M205.671 152.453C207.708 152.453 209.359 150.802 209.359 148.765C209.359 146.728 207.708 145.077 205.671 145.077C203.634 145.077 201.983 146.728 201.983 148.765C201.983 150.802 203.634 152.453 205.671 152.453Z" fill="#053949"/>
<path d="M248.024 160.518C254.533 160.518 259.809 155.252 259.809 148.755C259.809 142.259 254.533 136.992 248.024 136.992C241.516 136.992 236.239 142.259 236.239 148.755C236.239 155.252 241.516 160.518 248.024 160.518Z" fill="white"/>
<path d="M248.024 163.342C239.957 163.342 233.416 156.812 233.416 148.755C233.416 140.698 239.957 134.169 248.024 134.169C256.091 134.169 262.633 140.698 262.633 148.755C262.633 156.812 256.091 163.342 248.024 163.342ZM248.024 157.695C252.975 157.695 256.986 153.691 256.986 148.755C256.986 143.819 252.975 139.816 248.024 139.816C243.074 139.816 239.063 143.819 239.063 148.755C239.063 153.691 243.074 157.695 248.024 157.695Z" fill="#063A49"/>
<path d="M248.024 152.453C250.061 152.453 251.712 150.802 251.712 148.765C251.712 146.728 250.061 145.077 248.024 145.077C245.987 145.077 244.336 146.728 244.336 148.765C244.336 150.802 245.987 152.453 248.024 152.453Z" fill="#053949"/>
<path d="M238.49 145.505C237.209 145.713 235.925 145.903 234.637 146.077C231.475 146.5 228.93 146.718 226.952 146.718C224.997 146.718 222.488 146.5 219.378 146.075C218.188 145.913 216.923 145.722 215.589 145.503C213.605 145.178 211.627 144.821 209.646 144.431C195.828 144.182 185.728 135.134 185.728 122.213V91.3421C185.728 68.5093 204.237 50 227.07 50C249.955 50 268.479 68.4944 268.479 91.3421V122.213C268.48 135.137 258.374 144.187 244.549 144.432C242.534 144.821 240.514 145.179 238.49 145.505ZM244.231 138.789C255.243 138.683 262.833 131.948 262.832 122.213V91.3421C262.832 71.6152 246.838 55.6471 227.07 55.6471C207.356 55.6471 191.375 71.6281 191.375 91.3421V122.213C191.375 131.947 198.962 138.682 209.972 138.788L210.237 138.791L210.498 138.843L210.72 138.887C212.642 139.266 214.57 139.613 216.502 139.93C217.788 140.141 219.003 140.324 220.141 140.48C223.021 140.873 225.297 141.071 226.952 141.071C228.635 141.071 230.952 140.873 233.885 140.48C235.122 140.313 236.356 140.13 237.59 139.931C239.639 139.6 241.682 139.237 243.719 138.841L243.973 138.791L244.231 138.789Z" fill="#043849"/>
<mask id="mask1_203_23" style="mask-type:luminance" maskUnits="userSpaceOnUse" x="191" y="55" width="72" height="87">
<path d="M243.975 138.79C243.975 138.79 232.626 141.071 226.952 141.071C221.379 141.071 210.233 138.79 210.233 138.79C199.818 138.79 191.375 132.628 191.375 122.213V91.3421C191.375 71.6282 207.356 55.6471 227.07 55.6471C246.851 55.6471 262.832 71.6282 262.832 91.3421V122.213C262.833 132.628 254.389 138.79 243.975 138.79Z" fill="#00D8FE"/>
</mask>
<g mask="url(#mask1_203_23)">
<path d="M243.975 138.79C243.975 138.79 232.626 141.071 226.952 141.071C221.379 141.071 210.233 138.79 210.233 138.79C199.818 138.79 191.375 132.628 191.375 122.213V91.3421C191.375 71.6282 207.356 55.6471 227.07 55.6471C246.851 55.6471 262.832 71.6282 262.832 91.3421V122.213C262.833 132.628 254.389 138.79 243.975 138.79Z" fill="#00D8FE"/>
</g>
<mask id="mask2_203_23" style="mask-type:luminance" maskUnits="userSpaceOnUse" x="191" y="55" width="72" height="87">
<path d="M243.975 138.79C243.975 138.79 232.626 141.071 226.952 141.071C221.379 141.071 210.233 138.79 210.233 138.79C199.818 138.79 191.375 132.628 191.375 122.213V91.3421C191.375 71.6282 207.356 55.6471 227.07 55.6471C246.851 55.6471 262.832 71.6282 262.832 91.3421V122.213C262.833 132.628 254.389 138.79 243.975 138.79Z" fill="black" fill-opacity="0.25"/>
</mask>
<g mask="url(#mask2_203_23)">
<path d="M201.209 121.272V80.9892C201.209 62.9327 214.619 48.0169 232.021 45.6348C230.403 45.4103 228.771 45.2963 227.137 45.2936H227.07C207.356 45.2936 191.374 61.2748 191.374 80.9887V121.272C191.374 131.687 199.817 140.129 210.232 140.129H220.067C209.652 140.13 201.209 131.687 201.209 121.272Z" fill="black" fill-opacity="0.25"/>
</g>
<mask id="mask3_203_23" style="mask-type:luminance" maskUnits="userSpaceOnUse" x="191" y="55" width="72" height="87">
<path d="M243.975 138.79C243.975 138.79 232.626 141.071 226.952 141.071C221.379 141.071 210.233 138.79 210.233 138.79C199.818 138.79 191.375 132.628 191.375 122.213V91.3421C191.375 71.6282 207.356 55.6471 227.07 55.6471C246.851 55.6471 262.832 71.6282 262.832 91.3421V122.213C262.833 132.628 254.389 138.79 243.975 138.79Z" fill="black" fill-opacity="0.25"/>
</mask>
<g mask="url(#mask3_203_23)">
<path d="M223.263 124.448C225.3 124.448 226.951 122.797 226.951 120.76C226.951 118.723 225.3 117.072 223.263 117.072C221.226 117.072 219.575 118.723 219.575 120.76C219.575 122.797 221.226 124.448 223.263 124.448Z" fill="black" fill-opacity="0.25"/>
</g>
<mask id="mask4_203_23" style="mask-type:luminance" maskUnits="userSpaceOnUse" x="191" y="55" width="72" height="87">
<path d="M243.975 138.79C243.975 138.79 232.626 141.071 226.952 141.071C221.379 141.071 210.233 138.79 210.233 138.79C199.818 138.79 191.375 132.628 191.375 122.213V91.3421C191.375 71.6282 207.356 55.6471 227.07 55.6471C246.851 55.6471 262.832 71.6282 262.832 91.3421V122.213C262.833 132.628 254.389 138.79 243.975 138.79Z" fill="black" fill-opacity="0.25"/>
</mask>
<g mask="url(#mask4_203_23)">
<path d="M213.38 105.154C215.417 105.154 217.068 103.503 217.068 101.466C217.068 99.4291 215.417 97.7779 213.38 97.7779C211.344 97.7779 209.692 99.4291 209.692 101.466C209.692 103.503 211.344 105.154 213.38 105.154Z" fill="black" fill-opacity="0.25"/>
</g>
<mask id="mask5_203_23" style="mask-type:luminance" maskUnits="userSpaceOnUse" x="191" y="55" width="72" height="87">
<path d="M243.975 138.79C243.975 138.79 232.626 141.071 226.952 141.071C221.379 141.071 210.233 138.79 210.233 138.79C199.818 138.79 191.375 132.628 191.375 122.213V91.3421C191.375 71.6282 207.356 55.6471 227.07 55.6471C246.851 55.6471 262.832 71.6282 262.832 91.3421V122.213C262.833 132.628 254.389 138.79 243.975 138.79Z" fill="black" fill-opacity="0.25"/>
</mask>
<g mask="url(#mask5_203_23)">
<path d="M227.104 87.1506C229.141 87.1506 230.792 85.4994 230.792 83.4626C230.792 81.4258 229.141 79.7746 227.104 79.7746C225.067 79.7746 223.416 81.4258 223.416 83.4626C223.416 85.4994 225.067 87.1506 227.104 87.1506Z" fill="black" fill-opacity="0.25"/>
</g>
<mask id="mask6_203_23" style="mask-type:luminance" maskUnits="userSpaceOnUse" x="191" y="55" width="72" height="87">
<path d="M243.975 138.79C243.975 138.79 232.626 141.071 226.952 141.071C221.379 141.071 210.233 138.79 210.233 138.79C199.818 138.79 191.375 132.628 191.375 122.213V91.3421C191.375 71.6282 207.356 55.6471 227.07 55.6471C246.851 55.6471 262.832 71.6282 262.832 91.3421V122.213C262.833 132.628 254.389 138.79 243.975 138.79Z" fill="black" fill-opacity="0.25"/>
</mask>
<g mask="url(#mask6_203_23)">
<path d="M240.675 106.095C242.711 106.095 244.363 104.444 244.363 102.407C244.363 100.37 242.711 98.7191 240.675 98.7191C238.638 98.7191 236.987 100.37 236.987 102.407C236.987 104.444 238.638 106.095 240.675 106.095Z" fill="black" fill-opacity="0.25"/>
</g>
<line x1="1.99803" y1="323.789" x2="454.089" y2="322.897" stroke="black" stroke-width="2" stroke-linecap="round" stroke-dasharray="4 4"/>
<line x1="1.99803" y1="374.685" x2="454.089" y2="373.793" stroke="black" stroke-width="2" stroke-linecap="round" stroke-dasharray="4 4"/>
<line x1="1.99803" y1="425.58" x2="454.089" y2="424.689" stroke="black" stroke-width="2" stroke-linecap="round" stroke-dasharray="4 4"/>
</svg>
